<?xml version="1.0" encoding="utf-8"?>
<!-- Generator: Adobe Illustrator 27.5.0, SVG Export Plug-In . SVG Version: 6.00 Build 0)  -->
<svg version="1.1" xmlns="http://www.w3.org/2000/svg" xmlns:xlink="http://www.w3.org/1999/xlink" x="0px" y="0px"
	 viewBox="0 0 500 500" style="enable-background:new 0 0 500 500;" xml:space="preserve">
<g id="Background_Simple">
	<g>
		<path style="fill:#92E3A9;" d="M422.918,85.556c-1.676-1.642-3.41-3.241-5.202-4.796c-37.191-32.265-86.566-49.139-134.72-55.959
			c-48.801-6.912-100.56-0.652-142.604,26.49c-4.689,3.027-9.226,6.287-13.592,9.763C91.757,88.958,75.071,128.04,70.479,171.916
			c-3.51,33.536-20.155,59.798-31.586,90.784c-12.437,33.714-12.283,75.169,4.111,107.602c19.464,38.505,58.334,58.192,97.91,70.167
			c66.839,20.223,141.732,20.158,206.85-6.35c45.14-18.375,91.036-49.95,109.571-96.698c16.559-41.764,17.345-88.666,11.926-132.719
			C463.993,161.861,454.958,116.933,422.918,85.556z"/>
		<path style="opacity:0.7;fill:#FFFFFF;" d="M422.918,85.556c-1.676-1.642-3.41-3.241-5.202-4.796
			c-37.191-32.265-86.566-49.139-134.72-55.959c-48.801-6.912-100.56-0.652-142.604,26.49c-4.689,3.027-9.226,6.287-13.592,9.763
			C91.757,88.958,75.071,128.04,70.479,171.916c-3.51,33.536-20.155,59.798-31.586,90.784
			c-12.437,33.714-12.283,75.169,4.111,107.602c19.464,38.505,58.334,58.192,97.91,70.167c66.839,20.223,141.732,20.158,206.85-6.35
			c45.14-18.375,91.036-49.95,109.571-96.698c16.559-41.764,17.345-88.666,11.926-132.719
			C463.993,161.861,454.958,116.933,422.918,85.556z"/>
	</g>
</g>
<g id="Clouds">
	<g>
		<path style="fill:none;stroke:#263238;stroke-miterlimit:10;" d="M205.584,81.353c0,0-1.652-9.363-6.609-10.465
			c-3.39-0.753-6.778,0.296-8.582,1.035c-1.471-3.265-3.641-6.488-6.84-8.746c-9.363-6.61-14.871,5.508-14.871,5.508
			s-6.059-14.871-19.278-22.032c-13.219-7.16-25.887-1.652-30.844,2.754c-4.957,4.406-8.813,12.668-9.363,15.422
			c-0.551,2.754-2.754-3.856-10.465-2.203c-7.711,1.652-12.117,12.117-12.117,12.117s-3.855-4.957-8.813-2.754
			c-4.957,2.203-6.61,7.711-6.61,7.711l-20.93,4.957h115.115h28.09h24.235L205.584,81.353z"/>
		<path style="fill:none;stroke:#263238;stroke-miterlimit:10;" d="M424.57,340.535c0,0-1.151-6.522-4.603-7.289
			c-2.361-0.525-4.721,0.206-5.977,0.721c-1.025-2.274-2.536-4.519-4.764-6.092c-6.522-4.603-10.358,3.836-10.358,3.836
			s-4.22-10.358-13.427-15.345c-9.207-4.987-18.03-1.151-21.483,1.918c-3.453,3.069-6.138,8.823-6.522,10.741
			c-0.384,1.918-1.918-2.685-7.289-1.534s-8.44,8.44-8.44,8.44s-2.685-3.453-6.138-1.918c-3.453,1.535-4.603,5.371-4.603,5.371
			l-14.578,3.453h80.177h19.565h16.879L424.57,340.535z"/>
		<path style="fill:none;stroke:#263238;stroke-miterlimit:10;" d="M440.478,82.056c0,0-1.011-5.73-4.045-6.404
			c-2.074-0.461-4.148,0.181-5.252,0.633c-0.9-1.998-2.228-3.97-4.186-5.352c-5.73-4.045-9.1,3.371-9.1,3.371
			s-3.708-9.101-11.797-13.482c-8.089-4.382-15.842-1.011-18.875,1.685c-3.034,2.696-5.393,7.752-5.73,9.438
			c-0.337,1.685-1.685-2.359-6.404-1.348c-4.719,1.011-7.415,7.415-7.415,7.415s-2.359-3.034-5.393-1.685
			c-3.034,1.348-4.045,4.719-4.045,4.719l-12.808,3.034h70.445h17.19h14.831L440.478,82.056z"/>
	</g>
</g>
<g id="Plants">
	<g>
		<g>
			<path style="fill:#263238;" d="M374.34,402.737c1.98,0.865,6.822,0.755,6.826,0.755c0.05-0.001-1.041-3.17-1.133-3.362
				c-1.062-2.223-4.422-5.892-7.156-5.523c-1.969,0.266-3.064,2.237-2.62,4.091C370.711,400.594,372.654,402,374.34,402.737z"/>
			<path style="fill:#263238;" d="M376.011,416.763c2.054,0.299,6.375-0.953,6.719-1.055c0.682,2.419,1.579,4.846,2.621,7.252
				c0.594,1.376,1.236,2.744,1.896,4.107c-0.394-0.577-0.751-1.091-0.809-1.157c-1.612-1.863-5.822-4.515-8.36-3.436
				c-1.83,0.776-2.365,2.967-1.447,4.638c0.937,1.706,3.184,2.551,5.004,2.816c1.847,0.27,5.553-0.725,6.531-1.002
				c0.259,0.521,0.511,1.043,0.772,1.562c1.252,2.492,2.511,4.973,3.672,7.444c0.41,0.871,0.781,1.743,1.156,2.615
				c-0.35-0.513-0.65-0.941-0.703-1.002c-1.612-1.863-5.821-4.515-8.361-3.436c-1.829,0.777-2.365,2.967-1.447,4.638
				c0.938,1.707,3.184,2.551,5.005,2.816c1.763,0.257,5.192-0.63,6.354-0.953c0.357,0.904,0.716,1.809,1.021,2.701
				c0.195,0.614,0.425,1.192,0.585,1.819c0.173,0.618,0.343,1.23,0.512,1.836c0.283,1.178,0.582,2.393,0.829,3.55
				c0.178,0.803,0.333,1.572,0.491,2.346c-0.398-0.872-1.212-2.561-1.296-2.695c-1.31-2.086-5.07-5.344-7.743-4.663
				c-1.926,0.491-2.787,2.575-2.132,4.365c0.669,1.829,2.76,3.004,4.52,3.542c1.937,0.592,6.226,0.051,6.762-0.02
				c0.257,1.282,0.495,2.531,0.701,3.713c0.11,0.626,0.206,1.213,0.303,1.804h1.706c-0.126-0.681-0.258-1.377-0.402-2.105
				c-0.255-1.302-0.555-2.689-0.876-4.11c0.323-0.128,2.152-0.868,3.773-1.774c1.412,1.529,5.03,3.319,5.498,3.546
				c-0.492,1.211-0.983,2.384-1.464,3.483c-0.145,0.333-0.284,0.642-0.425,0.959h1.797c0.045-0.108,0.089-0.212,0.135-0.323
				c0.505-1.227,1.021-2.549,1.537-3.911c0.519,0.108,4.765,0.971,6.744,0.524c1.794-0.406,3.968-1.421,4.772-3.196
				c0.787-1.736,0.083-3.879-1.802-4.512c-2.615-0.878-6.606,2.091-8.069,4.074c-0.087,0.117-0.881,1.49-1.368,2.365
				c0.208-0.557,0.416-1.097,0.623-1.674c0.418-1.137,0.801-2.285,1.217-3.518c0.18-0.603,0.362-1.211,0.547-1.826
				c0.195-0.606,0.324-1.271,0.491-1.911c0.356-1.493,0.643-3.024,0.899-4.572c0.997,0.362,4.556,1.601,6.4,1.471
				c1.836-0.129,4.137-0.803,5.2-2.435c1.041-1.598,0.67-3.822-1.097-4.734c-2.452-1.264-6.847,1.067-8.594,2.805
				c-0.109,0.108-1.221,1.496-1.818,2.27c0.147-0.932,0.297-1.861,0.414-2.809c0.34-2.735,0.598-5.514,0.868-8.286
				c0.082-0.849,0.175-1.694,0.264-2.54c0.353,0.133,4.552,1.696,6.617,1.551c1.836-0.129,4.138-0.803,5.2-2.435
				c1.041-1.597,0.67-3.822-1.097-4.732c-2.452-1.265-6.847,1.066-8.593,2.804c-0.131,0.131-1.73,2.13-2.111,2.658
				c0.197-1.864,0.41-3.719,0.695-5.539c0.389-2.512,0.91-4.955,1.59-7.285c0.164,0.063,4.539,1.713,6.655,1.565
				c1.835-0.129,4.138-0.803,5.2-2.436c1.04-1.597,0.67-3.822-1.097-4.733c-2.452-1.265-6.847,1.066-8.593,2.804
				c-0.137,0.137-1.855,2.288-2.139,2.701c0.041-0.138,0.068-0.286,0.11-0.424c0.757-2.478,1.802-4.783,2.886-6.894
				c0.627-1.228,1.296-2.366,1.971-3.459c0.784,0.391,4.383,2.139,6.301,2.216c1.838,0.073,4.201-0.344,5.436-1.849
				c1.21-1.474,1.085-3.725-0.57-4.825c-2.299-1.526-6.923,0.308-8.85,1.844c-0.105,0.083-1.075,1.05-1.773,1.764
				c0.312-0.489,0.625-0.999,0.934-1.461c1.154-1.738,2.318-3.258,3.359-4.597c0.599-0.756,1.154-1.428,1.682-2.051
				c0.968-0.017,4.872-0.135,6.579-0.937c1.665-0.782,3.57-2.241,3.973-4.146c0.394-1.866-0.754-3.807-2.73-4.019
				c-2.743-0.296-6.002,3.463-7.004,5.714c-0.086,0.195-1.092,3.392-1.041,3.391c0,0,0.047,0,0.059-0.001
				c-0.52,0.589-1.069,1.227-1.656,1.936c-1.073,1.318-2.273,2.817-3.469,4.537c-1.2,1.716-2.455,3.613-3.598,5.731
				c-1.148,2.121-2.246,4.412-3.073,6.918c-0.009,0.028-0.016,0.059-0.025,0.087c0.015-0.808-0.021-3.069-0.044-3.242
				c-0.317-2.443-2.364-6.977-5.077-7.479c-1.954-0.361-3.609,1.17-3.765,3.071c-0.159,1.941,1.248,3.884,2.621,5.11
				c1.548,1.382,5.843,2.72,6.185,2.827c-0.766,2.394-1.357,4.913-1.815,7.494c-0.263,1.476-0.483,2.971-0.684,4.472
				c-0.01-0.699-0.024-1.324-0.036-1.411c-0.317-2.443-2.364-6.977-5.077-7.479c-1.954-0.362-3.609,1.17-3.765,3.07
				c-0.159,1.941,1.248,3.884,2.62,5.109c1.392,1.243,5.032,2.459,5.999,2.767c-0.071,0.577-0.148,1.152-0.217,1.729
				c-0.331,2.768-0.649,5.532-1.044,8.234c-0.138,0.952-0.31,1.885-0.479,2.818c-0.01-0.62-0.023-1.143-0.033-1.222
				c-0.317-2.444-2.364-6.978-5.076-7.479c-1.955-0.361-3.61,1.17-3.766,3.071c-0.159,1.94,1.249,3.883,2.621,5.109
				c1.328,1.187,4.678,2.339,5.826,2.711c-0.201,0.951-0.401,1.904-0.639,2.816c-0.177,0.619-0.303,1.228-0.515,1.84
				c-0.197,0.61-0.392,1.215-0.585,1.813c-0.415,1.139-0.835,2.317-1.267,3.418c-0.295,0.768-0.59,1.495-0.885,2.227
				c0.149-0.946,0.402-2.805,0.406-2.962c0.037-1.636-0.543-4.296-1.7-6.167c0.007-0.242-0.007-0.482-0.045-0.722
				c-0.302-1.883-2.071-3.281-3.992-2.769c-2.666,0.71-4.356,5.389-4.482,7.849c-0.008,0.145,0.087,1.729,0.164,2.727
				c-0.135-0.58-0.257-1.145-0.403-1.74c-0.28-1.179-0.594-2.347-0.926-3.606c-0.182-0.602-0.366-1.21-0.552-1.824
				c-0.171-0.612-0.43-1.238-0.644-1.865c-0.527-1.441-1.132-2.877-1.773-4.309c1.032-0.247,4.684-1.178,6.15-2.304
				c1.46-1.12,3.008-2.953,2.994-4.899c-0.013-1.907-1.549-3.557-3.526-3.343c-2.743,0.298-5.123,4.667-5.621,7.08
				c-0.031,0.151-0.193,1.922-0.264,2.897c-0.392-0.858-0.779-1.716-1.204-2.572c-1.225-2.469-2.543-4.93-3.847-7.39
				c-0.4-0.754-0.789-1.509-1.181-2.264c0.368-0.084,4.733-1.097,6.375-2.357c1.46-1.12,3.008-2.953,2.994-4.9
				c-0.014-1.906-1.55-3.557-3.526-3.342c-2.743,0.298-5.123,4.667-5.621,7.079c-0.037,0.182-0.267,2.731-0.294,3.382
				c-0.864-1.663-1.709-3.328-2.476-5.003c-1.061-2.31-1.974-4.635-2.693-6.953c0.172-0.039,4.731-1.076,6.414-2.366
				c1.46-1.12,3.008-2.953,2.994-4.9c-0.013-1.907-1.55-3.557-3.526-3.342c-2.742,0.298-5.123,4.667-5.62,7.079
				c-0.039,0.189-0.285,2.932-0.294,3.432c-0.043-0.138-0.102-0.276-0.143-0.414c-0.735-2.485-1.136-4.984-1.396-7.343
				c-0.154-1.37-0.224-2.688-0.264-3.972c0.869-0.106,4.835-0.634,6.477-1.628c1.574-0.953,3.315-2.604,3.514-4.541
				c0.196-1.897-1.15-3.706-3.137-3.71c-2.759-0.005-5.604,4.076-6.364,6.419c-0.041,0.128-0.318,1.469-0.505,2.45
				c-0.009-0.579-0.029-1.178-0.027-1.733c0.004-2.086,0.136-3.997,0.266-5.687c0.082-0.961,0.175-1.828,0.271-2.638
				c0.798-0.549,3.989-2.801,4.97-4.411c0.958-1.571,1.741-3.838,1.026-5.65c-0.7-1.774-2.729-2.759-4.493-1.847
				c-2.451,1.267-3.096,6.201-2.69,8.63c0.035,0.21,0.961,3.431,1.003,3.403c0,0,0.039-0.027,0.048-0.033
				c-0.108,0.778-0.215,1.613-0.312,2.528c-0.168,1.691-0.342,3.603-0.391,5.698c-0.055,2.092-0.055,4.368,0.161,6.764
				c0.213,2.402,0.56,4.918,1.253,7.465c0.008,0.029,0.02,0.058,0.028,0.087c-0.434-0.682-1.712-2.548-1.826-2.68
				c-1.612-1.863-5.821-4.515-8.36-3.437c-1.829,0.777-2.365,2.967-1.447,4.638C371.946,415.654,374.191,416.497,376.011,416.763z"
				/>
			<path style="fill:#263238;" d="M423.318,403.802c0.043,0.027,0.88-3.218,0.91-3.429c0.339-2.44-0.438-7.354-2.922-8.554
				c-1.789-0.864-3.79,0.176-4.442,1.968c-0.666,1.829,0.178,4.075,1.178,5.619C419.216,401.22,423.315,403.8,423.318,403.802z"/>
		</g>
	</g>
	<g>
		<g>
			<path style="fill:#263238;" d="M79.469,428.739c1.095,0.478,3.772,0.418,3.774,0.418c0.028-0.001-0.576-1.753-0.626-1.859
				c-0.588-1.229-2.446-3.258-3.957-3.054c-1.089,0.147-1.695,1.237-1.449,2.263C77.462,427.554,78.536,428.332,79.469,428.739z"/>
			<path style="fill:#263238;" d="M80.393,436.495c1.136,0.166,3.525-0.527,3.715-0.583c0.377,1.338,0.873,2.68,1.45,4.01
				c0.329,0.761,0.683,1.517,1.049,2.271c-0.218-0.319-0.415-0.603-0.447-0.64c-0.892-1.03-3.219-2.497-4.623-1.9
				c-1.012,0.429-1.308,1.641-0.8,2.565c0.518,0.944,1.761,1.41,2.767,1.557c1.022,0.149,3.071-0.401,3.611-0.554
				c0.143,0.288,0.283,0.577,0.427,0.864c0.692,1.378,1.388,2.75,2.03,4.117c0.227,0.481,0.432,0.964,0.639,1.446
				c-0.194-0.284-0.36-0.521-0.389-0.554c-0.891-1.03-3.219-2.497-4.623-1.9c-1.012,0.429-1.308,1.641-0.8,2.565
				c0.519,0.944,1.761,1.411,2.768,1.557c0.975,0.142,2.871-0.349,3.514-0.527c0.197,0.5,0.396,1,0.564,1.494
				c0.108,0.34,0.235,0.659,0.324,1.006c0.095,0.342,0.19,0.68,0.283,1.015c0.156,0.651,0.322,1.323,0.458,1.963
				c0.098,0.444,0.184,0.87,0.271,1.298c-0.22-0.482-0.67-1.417-0.717-1.491c-0.725-1.153-2.804-2.955-4.282-2.579
				c-1.065,0.272-1.541,1.424-1.179,2.414c0.37,1.012,1.526,1.661,2.499,1.958c1.071,0.327,3.443,0.028,3.739-0.011
				c0.142,0.709,0.274,1.399,0.387,2.053c0.061,0.346,0.114,0.671,0.168,0.998h0.943c-0.07-0.376-0.142-0.761-0.222-1.164
				c-0.141-0.72-0.307-1.487-0.484-2.273c0.178-0.071,1.19-0.48,2.086-0.981c0.781,0.845,2.781,1.835,3.04,1.961
				c-0.272,0.67-0.544,1.318-0.81,1.926c-0.08,0.184-0.157,0.355-0.235,0.53h0.994c0.025-0.06,0.049-0.117,0.074-0.179
				c0.279-0.679,0.564-1.41,0.85-2.163c0.287,0.06,2.635,0.537,3.729,0.29c0.992-0.224,2.195-0.786,2.639-1.767
				c0.435-0.96,0.046-2.145-0.996-2.495c-1.446-0.486-3.653,1.156-4.462,2.253c-0.048,0.064-0.487,0.824-0.756,1.308
				c0.115-0.308,0.23-0.606,0.344-0.925c0.231-0.629,0.443-1.264,0.673-1.946c0.1-0.333,0.2-0.67,0.302-1.01
				c0.108-0.335,0.179-0.703,0.272-1.057c0.197-0.826,0.356-1.672,0.497-2.528c0.551,0.2,2.519,0.885,3.539,0.813
				c1.015-0.071,2.288-0.444,2.876-1.347c0.576-0.884,0.37-2.114-0.606-2.618c-1.356-0.699-3.787,0.59-4.752,1.551
				c-0.06,0.06-0.675,0.827-1.005,1.255c0.081-0.515,0.164-1.029,0.229-1.553c0.188-1.513,0.331-3.049,0.48-4.582
				c0.046-0.47,0.097-0.937,0.146-1.405c0.195,0.074,2.517,0.938,3.659,0.858c1.015-0.071,2.288-0.444,2.876-1.347
				c0.576-0.883,0.37-2.113-0.607-2.617c-1.356-0.7-3.786,0.59-4.752,1.551c-0.073,0.072-0.957,1.178-1.168,1.47
				c0.109-1.031,0.227-2.056,0.384-3.063c0.215-1.389,0.504-2.74,0.879-4.029c0.091,0.035,2.51,0.947,3.68,0.865
				c1.015-0.071,2.288-0.444,2.876-1.347c0.575-0.883,0.37-2.113-0.607-2.617c-1.356-0.699-3.786,0.59-4.752,1.551
				c-0.076,0.076-1.026,1.265-1.183,1.493c0.023-0.077,0.038-0.159,0.061-0.234c0.419-1.37,0.997-2.645,1.596-3.812
				c0.347-0.679,0.717-1.308,1.09-1.913c0.433,0.216,2.424,1.183,3.484,1.225c1.017,0.041,2.323-0.19,3.006-1.023
				c0.669-0.815,0.6-2.06-0.315-2.668c-1.271-0.844-3.829,0.17-4.894,1.02c-0.058,0.046-0.595,0.581-0.98,0.976
				c0.173-0.27,0.346-0.552,0.516-0.808c0.638-0.961,1.282-1.802,1.858-2.542c0.331-0.418,0.638-0.79,0.93-1.134
				c0.536-0.009,2.694-0.075,3.638-0.518c0.921-0.433,1.974-1.239,2.197-2.293c0.218-1.032-0.417-2.105-1.509-2.223
				c-1.517-0.164-3.319,1.915-3.873,3.16c-0.048,0.108-0.604,1.876-0.576,1.875c0,0,0.026,0,0.032,0
				c-0.287,0.326-0.591,0.679-0.916,1.071c-0.593,0.729-1.257,1.558-1.918,2.509c-0.664,0.949-1.358,1.998-1.989,3.169
				c-0.635,1.173-1.242,2.44-1.699,3.826c-0.005,0.016-0.008,0.033-0.014,0.048c0.008-0.447-0.012-1.697-0.024-1.793
				c-0.175-1.351-1.307-3.859-2.808-4.136c-1.081-0.2-1.996,0.647-2.082,1.698c-0.088,1.073,0.69,2.148,1.449,2.826
				c0.856,0.764,3.231,1.504,3.421,1.563c-0.424,1.324-0.75,2.717-1.004,4.144c-0.146,0.816-0.267,1.643-0.378,2.473
				c-0.006-0.387-0.014-0.732-0.02-0.78c-0.175-1.351-1.307-3.858-2.808-4.136c-1.081-0.2-1.996,0.647-2.082,1.698
				c-0.088,1.073,0.69,2.148,1.449,2.826c0.77,0.688,2.783,1.36,3.317,1.53c-0.039,0.319-0.082,0.637-0.12,0.956
				c-0.183,1.531-0.359,3.059-0.577,4.553c-0.076,0.527-0.172,1.042-0.265,1.558c-0.005-0.343-0.013-0.632-0.019-0.676
				c-0.175-1.351-1.307-3.858-2.807-4.136c-1.081-0.2-1.996,0.647-2.083,1.698c-0.088,1.073,0.69,2.148,1.45,2.825
				c0.734,0.656,2.587,1.293,3.221,1.499c-0.111,0.526-0.222,1.053-0.354,1.557c-0.098,0.342-0.168,0.679-0.285,1.018
				c-0.109,0.337-0.217,0.672-0.324,1.003c-0.229,0.63-0.462,1.281-0.701,1.89c-0.163,0.425-0.326,0.827-0.489,1.232
				c0.082-0.523,0.222-1.551,0.225-1.638c0.021-0.905-0.3-2.376-0.94-3.41c0.004-0.134-0.004-0.267-0.025-0.399
				c-0.167-1.041-1.145-1.814-2.208-1.531c-1.474,0.392-2.409,2.98-2.479,4.34c-0.004,0.08,0.048,0.956,0.09,1.508
				c-0.074-0.321-0.142-0.633-0.223-0.962c-0.155-0.652-0.328-1.298-0.512-1.994c-0.1-0.333-0.202-0.669-0.305-1.009
				c-0.095-0.339-0.238-0.685-0.356-1.031c-0.292-0.797-0.626-1.591-0.98-2.383c0.571-0.137,2.59-0.652,3.401-1.274
				c0.807-0.619,1.663-1.633,1.656-2.709c-0.007-1.055-0.857-1.967-1.95-1.849c-1.517,0.165-2.833,2.581-3.108,3.915
				c-0.017,0.083-0.107,1.063-0.146,1.602c-0.217-0.474-0.431-0.949-0.666-1.422c-0.678-1.365-1.406-2.726-2.127-4.087
				c-0.221-0.417-0.436-0.834-0.653-1.252c0.204-0.047,2.617-0.607,3.525-1.303c0.807-0.619,1.663-1.633,1.656-2.71
				c-0.008-1.054-0.857-1.967-1.95-1.848c-1.517,0.165-2.833,2.581-3.108,3.915c-0.021,0.1-0.148,1.51-0.163,1.87
				c-0.478-0.919-0.945-1.84-1.369-2.767c-0.587-1.277-1.092-2.563-1.489-3.845c0.095-0.022,2.616-0.595,3.547-1.308
				c0.807-0.619,1.663-1.633,1.656-2.71c-0.007-1.055-0.857-1.967-1.95-1.848c-1.517,0.165-2.833,2.581-3.108,3.915
				c-0.022,0.105-0.158,1.621-0.163,1.898c-0.024-0.076-0.057-0.152-0.079-0.229c-0.406-1.374-0.628-2.756-0.772-4.061
				c-0.085-0.757-0.124-1.486-0.146-2.196c0.48-0.059,2.674-0.351,3.582-0.9c0.871-0.527,1.833-1.44,1.943-2.511
				c0.108-1.049-0.636-2.049-1.735-2.051c-1.526-0.003-3.099,2.254-3.519,3.55c-0.023,0.071-0.176,0.813-0.28,1.355
				c-0.005-0.32-0.016-0.651-0.015-0.958c0.002-1.154,0.075-2.21,0.147-3.145c0.045-0.531,0.097-1.011,0.15-1.459
				c0.441-0.303,2.206-1.549,2.748-2.439c0.53-0.869,0.963-2.123,0.567-3.124c-0.387-0.981-1.509-1.526-2.485-1.021
				c-1.355,0.701-1.712,3.429-1.488,4.772c0.02,0.116,0.531,1.897,0.555,1.882c0,0,0.022-0.015,0.027-0.018
				c-0.06,0.43-0.119,0.892-0.173,1.398c-0.093,0.935-0.189,1.993-0.216,3.151c-0.03,1.157-0.031,2.415,0.089,3.741
				c0.118,1.328,0.31,2.72,0.693,4.128c0.004,0.016,0.011,0.032,0.015,0.048c-0.24-0.377-0.947-1.409-1.01-1.482
				c-0.891-1.03-3.219-2.497-4.623-1.901c-1.011,0.43-1.308,1.641-0.8,2.565C78.145,435.882,79.386,436.349,80.393,436.495z"/>
			<path style="fill:#263238;" d="M106.554,429.328c0.024,0.015,0.487-1.78,0.503-1.896c0.188-1.349-0.242-4.067-1.616-4.73
				c-0.99-0.478-2.096,0.097-2.456,1.088c-0.368,1.012,0.099,2.253,0.652,3.107C104.285,427.9,106.552,429.327,106.554,429.328z"/>
		</g>
	</g>
</g>
<g id="Character_1_">
	<g>
		<g>
			<g>
				<path style="fill:#92E3A9;stroke:#263238;stroke-linecap:round;stroke-linejoin:round;stroke-miterlimit:10;" d="
					M343.019,466.271l-0.939-167.684l5.007-2.1c0,0,34.42,2.801,53.821,0.7c19.401-2.1,30.353-10.502,32.543-16.803
					c2.19-6.301-4.09-31.857-8.157-35.007c-4.068-3.151-103.24-19.954-103.24-19.954l-16.272,4.551c0,0-7.823-3.501-10.013-4.201
					c-2.19-0.7-7.197,4.551-7.197,4.551l-5.007,0.7h-19.305h-8.052h-21.704l-5.601-0.7c0,0-5.601-5.251-8.052-4.551
					c-2.451,0.7-11.202,4.201-11.202,4.201l-18.204-4.551c0,0-103.271,21.004-107.822,24.155
					c-4.551,3.151-19.254,24.505-16.803,30.806c2.451,6.301,14.703,14.703,36.407,16.803c21.704,2.1,60.212-0.7,60.212-0.7
					l5.601,2.1l-1.05,167.684"/>
				
					<line style="fill:none;stroke:#263238;stroke-linecap:round;stroke-linejoin:round;stroke-miterlimit:10;" x1="355.757" y1="269.216" x2="357.73" y2="264.98"/>
				<polyline style="fill:none;stroke:#263238;stroke-linecap:round;stroke-linejoin:round;stroke-miterlimit:10;" points="
					347.928,272.681 342.081,298.586 353.403,274.272 				"/>
				<path style="fill:none;stroke:#263238;stroke-linecap:round;stroke-linejoin:round;stroke-miterlimit:10;" d="M307.413,283.203
					c-0.169,3.05-0.443,4.882-0.443,4.882"/>
				<path style="fill:none;stroke:#263238;stroke-linecap:round;stroke-linejoin:round;stroke-miterlimit:10;" d="M295.767,235.574
					c0,0,5.601,8.402,9.452,23.455c1.765,6.9,2.28,13.58,2.32,18.791"/>
				<path style="fill:none;stroke:#263238;stroke-linecap:round;stroke-linejoin:round;stroke-miterlimit:10;" d="M302.069,235.224
					c0,0,14.703,16.803,15.753,21.354"/>
				<path style="fill:none;stroke:#263238;stroke-linecap:round;stroke-linejoin:round;stroke-miterlimit:10;" d="M209.65,233.823
					c0,0,2.101,22.405,6.651,31.506"/>
				<path style="fill:none;stroke:#263238;stroke-linecap:round;stroke-linejoin:round;stroke-miterlimit:10;" d="M200.459,240.825
					c-3.288,7.729-7.989,19.622-8.662,25.905"/>
				<path style="fill:none;stroke:#263238;stroke-linecap:round;stroke-linejoin:round;stroke-miterlimit:10;" d="M203.699,233.473
					c0,0-0.732,1.582-1.834,4.095"/>
				<path style="fill:none;stroke:#263238;stroke-linecap:round;stroke-linejoin:round;stroke-miterlimit:10;" d="M212.436,285.303
					c0.496,1.94,0.978,3.634,1.415,4.882"/>
				<path style="fill:none;stroke:#263238;stroke-linecap:round;stroke-linejoin:round;stroke-miterlimit:10;" d="M207.55,262.179
					c0,0,1.712,9.337,3.579,17.636"/>
				<path style="fill:none;stroke:#263238;stroke-linecap:round;stroke-linejoin:round;stroke-miterlimit:10;" d="M260.41,256.578
					c0,0-5.251,38.508-5.601,44.459c-0.35,5.951-0.35,125.325-0.35,125.325"/>
				<g>
					<path style="fill:none;stroke:#263238;stroke-linecap:round;stroke-linejoin:round;stroke-miterlimit:10;" d="M180.244,309.439
						h42.359c0,0,2.801,44.459,2.1,49.71c-0.7,5.251-18.904,13.653-24.855,14.003s-18.904-3.501-20.304-7.352"/>
					
						<line style="fill:none;stroke:#263238;stroke-linecap:round;stroke-linejoin:round;stroke-miterlimit:10;" x1="181.294" y1="316.44" x2="219.102" y2="316.44"/>
				</g>
				<g>
					<path style="fill:none;stroke:#263238;stroke-linecap:round;stroke-linejoin:round;stroke-miterlimit:10;" d="M326.098,309.439
						H283.74c0,0-2.801,44.459-2.1,49.71c0.7,5.251,18.904,13.653,24.855,14.003s18.904-3.501,20.304-7.352"/>
					
						<line style="fill:none;stroke:#263238;stroke-linecap:round;stroke-linejoin:round;stroke-miterlimit:10;" x1="325.048" y1="316.44" x2="287.241" y2="316.44"/>
				</g>
				
					<line style="fill:none;stroke:#263238;stroke-linecap:round;stroke-linejoin:round;stroke-miterlimit:10;" x1="157.515" y1="271.286" x2="155.739" y2="267.08"/>
				
					<line style="fill:none;stroke:#263238;stroke-linecap:round;stroke-linejoin:round;stroke-miterlimit:10;" x1="169.042" y1="298.586" x2="160.535" y2="278.44"/>
				
					<line style="fill:none;stroke:#263238;stroke-linecap:round;stroke-linejoin:round;stroke-miterlimit:10;" x1="163.441" y1="296.486" x2="145.587" y2="282.833"/>
				<path style="fill:none;stroke:#263238;stroke-linecap:round;stroke-linejoin:round;stroke-miterlimit:10;" d="M184.014,263.631
					c-3.974,7.117-9.467,17.664-10.772,23.753"/>
				<path style="fill:none;stroke:#263238;stroke-linecap:round;stroke-linejoin:round;stroke-miterlimit:10;" d="M188.296,256.228
					c0,0-1.053,1.736-2.608,4.446"/>
				<path style="fill:none;stroke:#263238;stroke-linecap:round;stroke-linejoin:round;stroke-miterlimit:10;" d="M387.486,278.983
					c0,0,6.301,8.052,11.202,11.202"/>
				<path style="fill:#FFFFFF;stroke:#263238;stroke-linecap:round;stroke-linejoin:round;stroke-miterlimit:10;" d="
					M265.614,279.114c0,1.486-1.204,2.69-2.69,2.69s-2.69-1.204-2.69-2.69c0-1.486,1.205-2.69,2.69-2.69
					S265.614,277.628,265.614,279.114z"/>
				<path style="fill:#FFFFFF;stroke:#263238;stroke-linecap:round;stroke-linejoin:round;stroke-miterlimit:10;" d="
					M263.075,309.246c0,1.486-1.204,2.69-2.69,2.69c-1.486,0-2.69-1.204-2.69-2.69s1.204-2.69,2.69-2.69
					C261.87,306.555,263.075,307.76,263.075,309.246z"/>
				<path style="fill:#FFFFFF;stroke:#263238;stroke-linecap:round;stroke-linejoin:round;stroke-miterlimit:10;" d="
					M262.744,339.378c0,1.486-1.204,2.69-2.69,2.69c-1.486,0-2.69-1.204-2.69-2.69c0-1.486,1.204-2.69,2.69-2.69
					C261.54,336.687,262.744,337.892,262.744,339.378z"/>
				<path style="fill:#FFFFFF;stroke:#263238;stroke-linecap:round;stroke-linejoin:round;stroke-miterlimit:10;" d="
					M262.357,369.509c0,1.486-1.204,2.69-2.69,2.69c-1.486,0-2.69-1.204-2.69-2.69c0-1.486,1.204-2.69,2.69-2.69
					C261.153,366.819,262.357,368.024,262.357,369.509z"/>
				<path style="fill:#FFFFFF;stroke:#263238;stroke-linecap:round;stroke-linejoin:round;stroke-miterlimit:10;" d="
					M261.64,399.641c0,1.486-1.204,2.69-2.69,2.69c-1.486,0-2.69-1.204-2.69-2.69c0-1.486,1.204-2.69,2.69-2.69
					C260.435,396.951,261.64,398.155,261.64,399.641z"/>
				
					<line style="fill:none;stroke:#263238;stroke-linecap:round;stroke-linejoin:round;stroke-miterlimit:10;" x1="254.809" y1="435.464" x2="254.809" y2="449.467"/>
				<path style="fill:none;stroke:#263238;stroke-linecap:round;stroke-linejoin:round;stroke-miterlimit:10;" d="M125.633,278.983
					c0,0-5.251,8.752-15.753,13.303"/>
				<path style="fill:#FFFFFF;stroke:#263238;stroke-linecap:round;stroke-linejoin:round;stroke-miterlimit:10;" d="
					M262.357,429.773c0,1.486-1.204,2.69-2.69,2.69c-1.486,0-2.69-1.205-2.69-2.69c0-1.486,1.204-2.69,2.69-2.69
					C261.153,427.083,262.357,428.288,262.357,429.773z"/>
			</g>
			<g>
				<path style="fill:#FFFFFF;stroke:#263238;stroke-linecap:round;stroke-linejoin:round;stroke-miterlimit:10;" d="
					M235.905,220.871c0,0-5.951,1.4-6.651,2.801c-0.7,1.4-7.702,25.905-8.052,28.356c-0.35,2.451-1.05,7.352,1.05,7.001
					s21.354-15.053,21.354-15.053s4.551,1.05,5.601,3.851c1.05,2.801,11.202,8.752,11.202,8.752s9.452-5.251,10.152-7.352
					c0.7-2.1,3.851-7.001,3.851-7.001s20.304,18.204,22.054,16.103c1.75-2.1,1.75-9.452,0.7-12.603
					c-1.05-3.151-9.802-25.205-10.852-26.605C285.265,217.72,235.905,220.871,235.905,220.871z"/>
				<polygon style="fill:#263238;stroke:#263238;stroke-linecap:round;stroke-linejoin:round;stroke-miterlimit:10;" points="
					248.858,238.024 260.41,256.578 269.162,239.424 				"/>
				<g>
					<path style="fill:#D9D9D9;stroke:#263238;stroke-linecap:round;stroke-linejoin:round;stroke-miterlimit:10;" d="
						M232.016,135.741c0,0-10.885,5.909-14.616,14.927c-3.732,9.019,5.287,59.71,7.153,62.819
						c1.866,3.11,20.618,25.486,27.298,28.331c7.855,3.345,16.836,1.665,20.166-2.96c0.813-1.129,20.528-21.674,21.461-25.716
						s7.578-55.01,4.779-64.029c-2.799-9.019-9.019-14.616-11.195-15.86c-2.177-1.244-8.397-4.043-8.397-4.043
						s3.732-8.086,2.488-8.397c-1.244-0.311-8.397,2.488-8.397,2.488c-4.354-0.622,5.909-4.354,2.799-3.732
						s-13.994,5.287-13.994,5.287s8.708-8.397,5.287-8.086c-3.421,0.311-15.549,3.732-17.104,5.909
						c-1.555,2.177-11.818,9.952-11.818,9.952s1.866-7.153-2.799-4.043C230.461,131.699,232.016,135.741,232.016,135.741z"/>
					<path style="fill:none;stroke:#263238;stroke-linecap:round;stroke-linejoin:round;stroke-miterlimit:10;" d="M266.311,170.527
						c0,0-4.44,8.573-3.969,13.283"/>
					<g>
						<path style="fill:none;stroke:#263238;stroke-linecap:round;stroke-linejoin:round;stroke-miterlimit:10;" d="
							M269.645,150.669l0.08-0.425C269.002,150.666,269.645,150.669,269.645,150.669z"/>
						<path style="fill:#263238;stroke:#263238;stroke-linecap:round;stroke-linejoin:round;stroke-miterlimit:10;" d="
							M287.06,133.254c-2.177-1.244-8.397-4.043-8.397-4.043s3.732-8.086,2.488-8.397c-1.244-0.311-8.397,2.488-8.397,2.488
							c-4.354-0.622,5.909-4.354,2.799-3.732c-3.11,0.622-13.994,5.287-13.994,5.287s8.708-8.397,5.287-8.086
							c-3.421,0.311-15.549,3.732-17.104,5.909c-1.555,2.177-11.817,9.952-11.817,9.952s1.866-7.153-2.799-4.043
							c-4.665,3.11-3.11,7.153-3.11,7.153s-10.885,5.909-14.616,14.927c-1.699,4.105-0.755,16.845,0.953,29.801
							c1.834-2.927,5.046-8.667,5.267-13.319c0.311-6.531,1.866-17.104,4.665-19.903c2.799-2.799,23.635,4.976,28.922,4.976
							s13.372-6.531,13.372-6.531l-0.853,4.551c0.393-0.23,1.185-0.582,2.719-1.13c4.354-1.555,7.153-4.043,7.153-4.043
							s9.33-1.244,9.952,8.397c0.622,9.641,0.311,17.104,2.177,21.147c1.054,2.285,3.499,7.448,5.426,11.508
							c1.5-14.774,2.679-31.938,1.105-37.009C295.457,140.095,289.237,134.497,287.06,133.254z"/>
					</g>
					<path style="fill:#263238;" d="M246.771,183.513c0,1.533-0.941,2.775-2.103,2.775c-1.161,0-2.103-1.243-2.103-2.775
						s0.941-2.775,2.103-2.775C245.829,180.738,246.771,181.98,246.771,183.513z"/>
					<path style="fill:#263238;" d="M274.523,183.513c0,1.533-0.941,2.775-2.103,2.775c-1.161,0-2.103-1.243-2.103-2.775
						s0.941-2.775,2.103-2.775C273.581,180.738,274.523,181.98,274.523,183.513z"/>
					<path style="fill:none;stroke:#263238;stroke-linecap:round;stroke-linejoin:round;stroke-miterlimit:10;" d="M250.924,200.192
						c0,0-0.74,1.665-0.74,2.775c0,1.11,2.035,3.7,2.035,3.7"/>
					<path style="fill:none;stroke:#263238;stroke-linecap:round;stroke-linejoin:round;stroke-miterlimit:10;" d="M253.145,204.262
						c0,0,3.515,3.885,6.66,3.145c3.145-0.74,5.18-3.885,5.18-3.885"/>
					<path style="fill:none;stroke:#263238;stroke-linecap:round;stroke-linejoin:round;stroke-miterlimit:10;" d="M266.465,199.637
						c0,0,1.48,2.22,0.74,4.81c-0.74,2.59-2.22,2.96-2.22,2.96"/>
					<path style="fill:#263238;" d="M249.105,170.527c0,0-5.126-2.632-10.847-0.501c-5.721,2.131-7.663,8.579-6.083,8.583
						c1.581,0.004,4.668-5.489,7.571-6.176C242.65,171.747,248.211,173.427,249.105,170.527z"/>
					<path style="fill:#263238;" d="M266.311,170.527c0,0,5.126-2.632,10.847-0.501c5.721,2.131,7.663,8.579,6.083,8.583
						c-1.581,0.004-4.668-5.489-7.571-6.176C272.767,171.747,267.206,173.427,266.311,170.527z"/>
					
						<line style="fill:none;stroke:#263238;stroke-linecap:round;stroke-linejoin:round;stroke-miterlimit:10;" x1="238.714" y1="185.206" x2="234.274" y2="187.611"/>
					
						<line style="fill:none;stroke:#263238;stroke-linecap:round;stroke-linejoin:round;stroke-miterlimit:10;" x1="231.684" y1="184.836" x2="234.459" y2="184.096"/>
					
						<line style="fill:none;stroke:#263238;stroke-linecap:round;stroke-linejoin:round;stroke-miterlimit:10;" x1="279.416" y1="185.576" x2="283.116" y2="187.241"/>
					
						<line style="fill:none;stroke:#263238;stroke-linecap:round;stroke-linejoin:round;stroke-miterlimit:10;" x1="283.116" y1="182.061" x2="280.526" y2="181.876"/>
					<ellipse style="fill:#263238;" cx="259.527" cy="220.543" rx="4.724" ry="5.604"/>
				</g>
			</g>
			<g>
				<path style="fill:#FFFFFF;stroke:#263238;stroke-linecap:round;stroke-linejoin:round;stroke-miterlimit:10;" d="
					M116.181,232.423c0,0,0.7-4.551-1.75-4.551s-28.706,12.953-30.456,18.904c-1.75,5.951,4.201,25.205,10.502,29.406
					c6.301,4.201,19.954,7.702,23.805,6.301c3.851-1.4,16.803-7.351,17.854-10.152c1.05-2.801-1.4-7.001-1.4-7.001L116.181,232.423z
					"/>
				<g>
					<path style="fill:#D9D9D9;stroke:#263238;stroke-linecap:round;stroke-linejoin:round;stroke-miterlimit:10;" d="
						M228.439,138.768c0,0-5.368,9.487-6.271,10.756c-0.903,1.27-0.254,38.964-0.734,44.586c-0.48,5.622-3.412,12.865-5.513,16.035
						c-2.101,3.17-85.412,60.457-85.412,60.457s-8.05,2.075-14.797-5.856c-6.747-7.931-8.358-22.227-7.519-25.988
						c0.839-3.761,2.956-6.309,2.956-6.309s87.668-33.089,88.595-33.424c0.926-0.335,3.602-5.39,3.539-7.882
						c-0.063-2.492-3.684-34.5-2.782-35.77c0.903-1.27,11.758-15.571,11.758-15.571s15.374-8.183,16.293-8.83
						c0.919-0.647,8.018-3.321,8.082-0.829c0.063,2.492-1.773,3.785-3.315,4.448c-1.541,0.663-3.378,1.956-3.378,1.956
						L228.439,138.768z"/>
					<path style="fill:none;stroke:#263238;stroke-linecap:round;stroke-linejoin:round;stroke-miterlimit:10;" d="M226.935,131.897
						c0,0-13.304,13.831-13.776,14.665c-0.472,0.835-3.08,14.722-3.08,14.722"/>
					<path style="fill:none;stroke:#263238;stroke-linecap:round;stroke-linejoin:round;stroke-miterlimit:10;" d="M212.259,139.803
						c0,0-6.209,11.876-7.158,13.381c-0.949,1.505-1.05,3.975-0.844,5.616"/>
				</g>
			</g>
			<g>
				<path style="fill:#FFFFFF;stroke:#263238;stroke-linecap:round;stroke-linejoin:round;stroke-miterlimit:10;" d="
					M397.72,232.423c0,0-0.7-4.551,1.75-4.551s28.706,12.953,30.456,18.904c1.75,5.951-4.201,25.205-10.502,29.406
					c-6.301,4.201-19.954,7.702-23.805,6.301c-3.851-1.4-16.803-7.351-17.854-10.152c-1.05-2.801,1.4-7.001,1.4-7.001
					L397.72,232.423z"/>
				<g>
					<path style="fill:#D9D9D9;stroke:#263238;stroke-linecap:round;stroke-linejoin:round;stroke-miterlimit:10;" d="
						M286.259,137.998c0,0,5.308,9.52,6.202,10.796c0.895,1.275,0.006,38.965,0.45,44.59c0.444,5.625,3.33,12.886,5.411,16.07
						c2.081,3.183,85.026,61,85.026,61s8.037,2.126,14.834-5.762c6.797-7.888,8.499-22.173,7.684-25.94
						c-0.815-3.766-2.916-6.327-2.916-6.327s-87.456-33.646-88.38-33.987c-0.924-0.341-3.568-5.413-3.489-7.904
						c0.079-2.491,3.904-34.476,3.009-35.752c-0.895-1.275-11.659-15.646-11.659-15.646s-15.322-8.281-16.236-8.934
						c-0.914-0.653-7.997-3.372-8.077-0.881c-0.079,2.491,1.749,3.796,3.286,4.469c1.537,0.672,3.366,1.978,3.366,1.978
						L286.259,137.998z"/>
					<path style="fill:none;stroke:#263238;stroke-linecap:round;stroke-linejoin:round;stroke-miterlimit:10;" d="M287.806,131.137
						c0,0,13.215,13.915,13.682,14.753c0.467,0.838,2.986,14.741,2.986,14.741"/>
					<path style="fill:none;stroke:#263238;stroke-linecap:round;stroke-linejoin:round;stroke-miterlimit:10;" d="M302.432,139.136
						c0,0,6.133,11.916,7.073,13.427c0.939,1.511,1.025,3.982,0.808,5.621"/>
				</g>
			</g>
		</g>
		<g>
			<g>
				
					<line style="fill:none;stroke:#263238;stroke-linecap:round;stroke-linejoin:round;stroke-miterlimit:10;" x1="163.469" y1="126.033" x2="182.807" y2="133.195"/>
				
					<line style="fill:none;stroke:#263238;stroke-linecap:round;stroke-linejoin:round;stroke-miterlimit:10;" x1="181.374" y1="161.128" x2="167.05" y2="164.709"/>
				
					<line style="fill:none;stroke:#263238;stroke-linecap:round;stroke-linejoin:round;stroke-miterlimit:10;" x1="348.254" y1="126.033" x2="328.916" y2="133.195"/>
				
					<line style="fill:none;stroke:#263238;stroke-linecap:round;stroke-linejoin:round;stroke-miterlimit:10;" x1="330.349" y1="161.128" x2="344.673" y2="164.709"/>
			</g>
			
				<line style="fill:none;stroke:#263238;stroke-linecap:round;stroke-linejoin:round;stroke-miterlimit:10;" x1="206.118" y1="105.519" x2="213.266" y2="117.671"/>
			
				<line style="fill:none;stroke:#263238;stroke-linecap:round;stroke-linejoin:round;stroke-miterlimit:10;" x1="311.196" y1="105.519" x2="304.048" y2="117.671"/>
		</g>
	</g>
</g>
</svg>
